<svg xmlns="http://www.w3.org/2000/svg" xmlns:xlink="http://www.w3.org/1999/xlink" zoomAndPan="magnify" preserveAspectRatio="xMidYMid meet" version="1.0" viewBox="11.87 158.73 348.38 72.75"><defs><g/><clipPath id="f933d781ee"><path d="M 42 158.726562 L 82 158.726562 L 82 189 L 42 189 Z M 42 158.726562 " clip-rule="nonzero"/></clipPath><clipPath id="5c66e0ab18"><path d="M 62 158.726562 L 63 158.726562 L 63 159 L 62 159 Z M 62 158.726562 " clip-rule="nonzero"/></clipPath><clipPath id="bb2b42e84d"><path d="M 11.871094 197 L 37 197 L 37 231.476562 L 11.871094 231.476562 Z M 11.871094 197 " clip-rule="nonzero"/></clipPath><clipPath id="be98b24c22"><path d="M 86 197 L 111.621094 197 L 111.621094 231.476562 L 86 231.476562 Z M 86 197 " clip-rule="nonzero"/></clipPath></defs><g clip-path="url(#f933d781ee)"><path fill="#313bac" d="M 43.257812 182.238281 L 49.726562 188.535156 L 62.21875 174.117188 L 74.707031 188.535156 L 81.898438 181.539062 L 62.761719 159.433594 L 62.292969 158.882812 L 42.742188 181.734375 Z M 43.257812 182.238281 " fill-opacity="1" fill-rule="nonzero"/></g><g clip-path="url(#5c66e0ab18)"><path fill="#313bac" d="M 62.21875 158.726562 L 62.179688 158.761719 L 62.292969 158.882812 L 62.328125 158.847656 Z M 62.21875 158.726562 " fill-opacity="1" fill-rule="nonzero"/></g><g clip-path="url(#bb2b42e84d)"><path fill="#313bac" d="M 21.332031 207.757812 L 12.875 217.644531 L 11.933594 218.742188 L 11.933594 231.476562 L 36.675781 203.574219 L 30.351562 197.386719 Z M 21.332031 207.757812 " fill-opacity="1" fill-rule="nonzero"/></g><g clip-path="url(#be98b24c22)"><path fill="#313bac" d="M 110.621094 217.644531 L 102.160156 207.757812 L 93.144531 197.386719 L 86.820312 203.574219 L 111.558594 231.476562 L 111.558594 218.742188 Z M 110.621094 217.644531 " fill-opacity="1" fill-rule="nonzero"/></g><path fill="#313bac" d="M 85.402344 185.585938 L 78.214844 192.582031 L 78.222656 192.59375 L 62.21875 208.15625 L 46.210938 192.59375 L 46.222656 192.582031 L 39.773438 186.3125 L 39.257812 185.808594 L 33.050781 193.074219 L 33.558594 193.578125 L 33.640625 193.660156 L 39.964844 199.84375 L 57.046875 216.550781 L 57.046875 228.679688 L 67.386719 228.679688 L 67.386719 216.550781 L 91.652344 192.816406 Z M 85.402344 185.585938 " fill-opacity="1" fill-rule="nonzero"/><g fill="#000000" fill-opacity="1"><g transform="translate(112.491324, 211.11331)"><g><path d="M 25.386719 -24.582031 L 15.976562 -24.582031 L 12.675781 -16.960938 L 9.375 -24.582031 L -0.0351562 -24.582031 L 8.53125 -9.128906 L 8.53125 0 L 16.785156 0 L 16.785156 -9.164062 Z M 25.386719 -24.582031 "/></g></g></g><g fill="#000000" fill-opacity="1"><g transform="translate(137.805196, 211.11331)"><g><path d="M 11.203125 0.703125 C 17.066406 0.703125 21 -2.773438 21 -8.320312 L 21 -18.960938 L 13.132812 -18.960938 L 13.132812 -8.183594 C 13.132812 -6.847656 12.359375 -6.074219 11.203125 -6.074219 C 10.042969 -6.074219 9.269531 -6.847656 9.269531 -8.183594 L 9.269531 -18.960938 L 1.40625 -18.960938 L 1.40625 -8.320312 C 1.40625 -2.773438 5.335938 0.703125 11.203125 0.703125 Z M 11.203125 0.703125 "/></g></g></g><g fill="#000000" fill-opacity="1"><g transform="translate(160.20499, 211.11331)"><g><path d="M 9.550781 0.703125 C 14.855469 0.703125 18.398438 -1.929688 18.398438 -5.933594 C 18.398438 -11.027344 14.398438 -11.589844 11.484375 -12.078125 C 9.761719 -12.359375 8.390625 -12.570312 8.390625 -13.589844 C 8.390625 -14.328125 8.953125 -14.644531 9.515625 -14.644531 C 10.113281 -14.644531 10.746094 -14.222656 10.746094 -13.273438 L 18.015625 -13.273438 C 17.839844 -17.136719 14.609375 -19.664062 9.515625 -19.664062 C 4.355469 -19.664062 0.914062 -17.3125 0.914062 -13.308594 C 0.914062 -8.566406 4.8125 -7.621094 7.691406 -7.164062 C 9.410156 -6.882812 10.746094 -6.671875 10.746094 -5.617188 C 10.746094 -4.882812 10.183594 -4.496094 9.550781 -4.496094 C 8.917969 -4.496094 8.21875 -4.953125 8.21875 -6.074219 L 0.738281 -6.074219 C 0.878906 -1.964844 3.898438 0.703125 9.550781 0.703125 Z M 9.550781 0.703125 "/></g></g></g><g fill="#000000" fill-opacity="1"><g transform="translate(179.304503, 211.11331)"><g><path d="M 11.203125 0.703125 C 17.066406 0.703125 21 -2.773438 21 -8.320312 L 21 -18.960938 L 13.132812 -18.960938 L 13.132812 -8.183594 C 13.132812 -6.847656 12.359375 -6.074219 11.203125 -6.074219 C 10.042969 -6.074219 9.269531 -6.847656 9.269531 -8.183594 L 9.269531 -18.960938 L 1.40625 -18.960938 L 1.40625 -8.320312 C 1.40625 -2.773438 5.335938 0.703125 11.203125 0.703125 Z M 11.203125 0.703125 "/></g></g></g><g fill="#000000" fill-opacity="1"><g transform="translate(201.704297, 211.11331)"><g><path d="M 13.660156 -19.664062 C 11.414062 -19.664062 9.410156 -18.855469 7.867188 -17.488281 L 7.164062 -18.960938 L 1.652344 -18.960938 L 1.652344 6.847656 L 9.339844 6.847656 L 9.339844 -0.386719 C 10.605469 0.316406 12.042969 0.703125 13.660156 0.703125 C 19.558594 0.703125 23.5625 -3.371094 23.5625 -9.480469 C 23.5625 -15.589844 19.558594 -19.664062 13.660156 -19.664062 Z M 12.21875 -5.828125 C 10.21875 -5.828125 8.742188 -7.375 8.742188 -9.480469 C 8.742188 -11.589844 10.21875 -13.132812 12.21875 -13.132812 C 14.222656 -13.132812 15.695312 -11.589844 15.695312 -9.480469 C 15.695312 -7.375 14.1875 -5.828125 12.21875 -5.828125 Z M 12.21875 -5.828125 "/></g></g></g><g fill="#000000" fill-opacity="1"><g transform="translate(225.929778, 211.11331)"><g><path d="M 13.871094 -19.664062 C 12.289062 -19.664062 10.78125 -19.101562 9.515625 -18.191406 L 9.515625 -25.808594 L 1.652344 -25.808594 L 1.652344 0 L 9.515625 0 L 9.515625 -10.429688 C 9.515625 -12.113281 10.324219 -13.132812 11.691406 -13.132812 C 12.851562 -13.132812 13.519531 -12.21875 13.519531 -10.640625 L 13.519531 0 L 21.386719 0 L 21.386719 -11.238281 C 21.386719 -16.292969 18.363281 -19.664062 13.871094 -19.664062 Z M 13.871094 -19.664062 "/></g></g></g><g fill="#000000" fill-opacity="1"><g transform="translate(248.750886, 211.11331)"><g/></g></g><g fill="#313bac" fill-opacity="1"><g transform="translate(255.553819, 211.11331)"><g><path d="M 18.433594 0 L 27.53125 0 L 17.664062 -24.582031 L 9.445312 -24.582031 L -0.351562 0 L 8.460938 0 L 9.550781 -3.40625 L 17.382812 -3.40625 Z M 15.871094 -9.128906 L 11.0625 -9.128906 L 13.449219 -15.871094 Z M 15.871094 -9.128906 "/></g></g></g><g fill="#313bac" fill-opacity="1"><g transform="translate(282.728488, 211.11331)"><g><path d="M 13.871094 -19.59375 C 12.183594 -19.59375 10.640625 -19.136719 9.339844 -18.363281 L 9.339844 -25.808594 L 1.652344 -25.808594 L 1.652344 0 L 7.515625 0 L 8.113281 -1.371094 C 9.621094 -0.0351562 11.625 0.703125 13.871094 0.703125 C 19.769531 0.703125 23.773438 -3.371094 23.773438 -9.445312 C 23.773438 -15.519531 19.769531 -19.59375 13.871094 -19.59375 Z M 12.429688 -5.828125 C 10.429688 -5.828125 8.953125 -7.375 8.953125 -9.445312 C 8.953125 -11.519531 10.429688 -13.0625 12.429688 -13.0625 C 14.433594 -13.0625 15.90625 -11.519531 15.90625 -9.445312 C 15.90625 -7.375 14.398438 -5.828125 12.429688 -5.828125 Z M 12.429688 -5.828125 "/></g></g></g><g fill="#313bac" fill-opacity="1"><g transform="translate(307.164632, 211.11331)"><g><path d="M 16.925781 -18.960938 L 16.1875 -17.664062 C 14.644531 -18.890625 12.746094 -19.59375 10.605469 -19.59375 C 4.707031 -19.59375 0.703125 -15.554688 0.703125 -9.480469 C 0.703125 -3.40625 4.707031 0.703125 10.605469 0.703125 C 12.710938 0.703125 14.609375 0.0351562 16.152344 -1.160156 L 16.785156 0 L 22.824219 0 L 22.824219 -18.960938 Z M 8.566406 -9.445312 C 8.566406 -11.484375 10.007812 -13.027344 12.042969 -13.027344 C 14.046875 -13.027344 15.519531 -11.484375 15.519531 -9.445312 C 15.519531 -7.375 14.046875 -5.828125 12.042969 -5.828125 C 10.042969 -5.828125 8.566406 -7.375 8.566406 -9.445312 Z M 8.566406 -9.445312 "/></g></g></g><g fill="#313bac" fill-opacity="1"><g transform="translate(331.635887, 211.11331)"><g><path d="M 9.550781 0.703125 C 14.855469 0.703125 18.398438 -1.929688 18.398438 -5.933594 C 18.398438 -11.027344 14.398438 -11.589844 11.484375 -12.078125 C 9.761719 -12.359375 8.390625 -12.570312 8.390625 -13.589844 C 8.390625 -14.328125 8.953125 -14.644531 9.515625 -14.644531 C 10.113281 -14.644531 10.746094 -14.222656 10.746094 -13.273438 L 18.015625 -13.273438 C 17.839844 -17.136719 14.609375 -19.664062 9.515625 -19.664062 C 4.355469 -19.664062 0.914062 -17.3125 0.914062 -13.308594 C 0.914062 -8.566406 4.8125 -7.621094 7.691406 -7.164062 C 9.410156 -6.882812 10.746094 -6.671875 10.746094 -5.617188 C 10.746094 -4.882812 10.183594 -4.496094 9.550781 -4.496094 C 8.917969 -4.496094 8.21875 -4.953125 8.21875 -6.074219 L 0.738281 -6.074219 C 0.878906 -1.964844 3.898438 0.703125 9.550781 0.703125 Z M 9.550781 0.703125 "/></g></g></g><g fill="#313bac" fill-opacity="1"><g transform="translate(350.7354, 211.11331)"><g><path d="M 1.71875 -21.316406 L 9.445312 -21.316406 L 9.445312 -27.566406 L 1.71875 -27.566406 Z M 1.652344 0 L 9.515625 0 L 9.515625 -18.960938 L 1.652344 -18.960938 Z M 1.652344 0 "/></g></g></g></svg>